<svg xmlns="http://www.w3.org/2000/svg" viewBox="0 0 1280 460" width="1280" height="460" role="img" aria-labelledby="t d">
  <title id="t">O3K building-block expansion</title>
  <desc id="d">A grid panel gains one active module, then a second panel appears, showing deterministic growth without replatforming.</desc>
  <defs>
    <marker id="arr" markerWidth="8" markerHeight="8" refX="6.5" refY="4" orient="auto" markerUnits="strokeWidth">
      <path d="M0,0 L8,4 L0,8 Z" fill="#7DD3FC"/>
    </marker>
  </defs>
  <rect width="1280" height="460" rx="18" fill="#08111F"/>
  <text x="64" y="70" font-family="Inter, ui-sans-serif, system-ui, -apple-system, 'Segoe UI', sans-serif" font-size="14" font-weight="700" fill="#22D3EE" text-anchor="start" letter-spacing="2.2">BUILDING-BLOCK EXPANSION</text>
    <text x="64" y="104" font-family="Inter, ui-sans-serif, system-ui, -apple-system, 'Segoe UI', sans-serif" font-size="30" font-weight="700" fill="#F1F5F9" text-anchor="start">Join a block. Keep the cloud.</text>
    <text x="64" y="134" font-family="Inter, ui-sans-serif, system-ui, -apple-system, 'Segoe UI', sans-serif" font-size="15" font-weight="400" fill="#94A9C4" text-anchor="start">prepare / enroll → authenticate → publish capability + failure domain → eligible for placement</text>
    <rect x="90" y="190" width="34" height="34" rx="7.48" fill="none" stroke="#33517A" stroke-width="1.8"/>
    <rect x="134" y="190" width="34" height="34" rx="7.48" fill="none" stroke="#33517A" stroke-width="1.8"/>
    <rect x="178" y="190" width="34" height="34" rx="7.48" fill="none" stroke="#33517A" stroke-width="1.8" stroke-dasharray="4 3"/>
    <rect x="90" y="234" width="34" height="34" rx="7.48" fill="none" stroke="#33517A" stroke-width="1.8"/>
    <rect x="134" y="234" width="34" height="34" rx="7.48" fill="#3B82F6"/>
    <rect x="178" y="234" width="34" height="34" rx="7.48" fill="none" stroke="#33517A" stroke-width="1.8"/>
    <rect x="90" y="278" width="34" height="34" rx="7.48" fill="#3B82F6"/>
    <rect x="134" y="278" width="34" height="34" rx="7.48" fill="none" stroke="#33517A" stroke-width="1.8"/>
    <rect x="178" y="278" width="34" height="34" rx="7.48" fill="none" stroke="#33517A" stroke-width="1.8"/>
    <text x="215" y="330" font-family="Inter, ui-sans-serif, system-ui, -apple-system, 'Segoe UI', sans-serif" font-size="15" font-weight="600" fill="#F1F5F9" text-anchor="middle">before</text>
    <text x="215" y="354" font-family="Inter, ui-sans-serif, system-ui, -apple-system, 'Segoe UI', sans-serif" font-size="13" font-weight="400" fill="#94A9C4" text-anchor="middle">small seed deployment</text>
    <line x1="350" y1="252" x2="500" y2="252" stroke="#7DD3FC" stroke-width="2" marker-end="url(#arr)"/>
    <text x="425" y="236" font-family="ui-monospace, SFMono-Regular, Menlo, Consolas, monospace" font-size="13" font-weight="600" fill="#7DD3FC" text-anchor="middle">block join</text>
    <rect x="540" y="190" width="34" height="34" rx="7.48" fill="none" stroke="#33517A" stroke-width="1.8"/>
    <rect x="584" y="190" width="34" height="34" rx="7.48" fill="none" stroke="#33517A" stroke-width="1.8"/>
    <rect x="628" y="190" width="34" height="34" rx="7.48" fill="#22D3EE"/>
    <rect x="540" y="234" width="34" height="34" rx="7.48" fill="none" stroke="#33517A" stroke-width="1.8"/>
    <rect x="584" y="234" width="34" height="34" rx="7.48" fill="#3B82F6"/>
    <rect x="628" y="234" width="34" height="34" rx="7.48" fill="none" stroke="#33517A" stroke-width="1.8"/>
    <rect x="540" y="278" width="34" height="34" rx="7.48" fill="#3B82F6"/>
    <rect x="584" y="278" width="34" height="34" rx="7.48" fill="none" stroke="#33517A" stroke-width="1.8"/>
    <rect x="628" y="278" width="34" height="34" rx="7.48" fill="none" stroke="#33517A" stroke-width="1.8"/>
    <text x="665" y="330" font-family="Inter, ui-sans-serif, system-ui, -apple-system, 'Segoe UI', sans-serif" font-size="15" font-weight="600" fill="#F1F5F9" text-anchor="middle">after</text>
    <text x="665" y="354" font-family="Inter, ui-sans-serif, system-ui, -apple-system, 'Segoe UI', sans-serif" font-size="13" font-weight="400" fill="#94A9C4" text-anchor="middle">same substrate, more capability</text>
    <line x1="800" y1="252" x2="950" y2="252" stroke="#7DD3FC" stroke-width="2" marker-end="url(#arr)"/>
    <rect x="990" y="190" width="26" height="26" rx="5.72" fill="none" stroke="#33517A" stroke-width="1.8"/>
    <rect x="1024" y="190" width="26" height="26" rx="5.72" fill="none" stroke="#33517A" stroke-width="1.8"/>
    <rect x="1058" y="190" width="26" height="26" rx="5.72" fill="#3B82F6"/>
    <rect x="990" y="224" width="26" height="26" rx="5.72" fill="none" stroke="#33517A" stroke-width="1.8"/>
    <rect x="1024" y="224" width="26" height="26" rx="5.72" fill="#3B82F6"/>
    <rect x="1058" y="224" width="26" height="26" rx="5.72" fill="none" stroke="#33517A" stroke-width="1.8"/>
    <rect x="990" y="258" width="26" height="26" rx="5.72" fill="#3B82F6"/>
    <rect x="1024" y="258" width="26" height="26" rx="5.72" fill="none" stroke="#33517A" stroke-width="1.8"/>
    <rect x="1058" y="258" width="26" height="26" rx="5.72" fill="none" stroke="#33517A" stroke-width="1.8"/>
    <rect x="1100" y="224" width="26" height="26" rx="5.72" fill="none" stroke="#33517A" stroke-width="1.8"/>
    <rect x="1134" y="224" width="26" height="26" rx="5.72" fill="none" stroke="#33517A" stroke-width="1.8"/>
    <rect x="1168" y="224" width="26" height="26" rx="5.72" fill="none" stroke="#33517A" stroke-width="1.8"/>
    <rect x="1100" y="258" width="26" height="26" rx="5.72" fill="#22D3EE"/>
    <rect x="1134" y="258" width="26" height="26" rx="5.72" fill="none" stroke="#33517A" stroke-width="1.8"/>
    <rect x="1168" y="258" width="26" height="26" rx="5.72" fill="none" stroke="#33517A" stroke-width="1.8"/>
    <rect x="1100" y="292" width="26" height="26" rx="5.72" fill="none" stroke="#33517A" stroke-width="1.8"/>
    <rect x="1134" y="292" width="26" height="26" rx="5.72" fill="none" stroke="#33517A" stroke-width="1.8"/>
    <rect x="1168" y="292" width="26" height="26" rx="5.72" fill="#3B82F6"/>
    <text x="1105" y="330" font-family="Inter, ui-sans-serif, system-ui, -apple-system, 'Segoe UI', sans-serif" font-size="15" font-weight="600" fill="#F1F5F9" text-anchor="middle">later</text>
    <text x="1105" y="354" font-family="Inter, ui-sans-serif, system-ui, -apple-system, 'Segoe UI', sans-serif" font-size="13" font-weight="400" fill="#94A9C4" text-anchor="middle">new panels, same contracts</text>
</svg>
